<?xml version="1.0" encoding="UTF-8"?>
<svg xmlns="http://www.w3.org/2000/svg" width="92.4mm" height="109.82mm" viewBox="0 0 261.93 311.29">
  <path d="M250.9,166.34c-3.06-3.06-6.42-5.89-9.11-9.25-3.04-3.8-5.5-3.06-8.96-.56-9.8,7.08-20.32,12.97-31.63,18.09,.16-5.64,2.81-9.02,7.68-10.62,7.98-2.61,14.86-7.13,21.38-12.23,5.03-3.94,9.11-8.7,11.2-14.88,2.14-6.3,.62-10.24-5.31-13.16-2.49-1.23-5.24-1.93-7.87-2.88-1.18-.43-3.24-.76-1.79-2.48,4.23-5.01,.24-4.88-3.1-5.54-2.78-.55-5.5-1.44-9.06-2.4,6.06-3.4,11.63-3.52,17.49-2.9,5.78,.62,11.57,3.06,17.48-.02,2.33-1.21,2.92-1.78,.59-3.53-4.38-3.3-8.66-6.72-12.96-10.11-5.94-4.68-11.86-9.37-18.22-14.41,3.78-.83,6.25,1.97,9.52,1.12-2.49-6.12-6.49-10.93-11.56-14.22-5.74-3.73-5.34-8.5-4.11-13.73,.92-3.93,2.41-7.71,3.85-12.17-5.54,1.09-7.98,5.16-11.35,8.81-.74-5.49-1.69-10.37-1.98-15.29-.39-6.65-2.9-10.87-9.53-13.71-11.7-5.01-23.03-10.96-34.2-17.09-7.47-4.1-14.96-3.65-22.65-1.89-2.26,.51-5.36,1.24-5.63,4.16-.27,2.92,3.25,2.08,4.7,3.46,.31,.3,.64,.56,1.18,1.03-4.05,.54-7.49-1.02-11.08-1.42-12.86-1.42-25.47-1.59-36.83,6.12-2.86,1.93-6.04,3.29-9.29,4.57-11.18,4.4-22.81,7.33-34.31,10.68-2.12,.62-3.51,1.41-4.54,3.29-8.66,15.7-17.53,31.3-25.17,47.54-3.57,7.59-4.32,15.57-3.16,25.23,5.19-7.45,9.57-13.71,14.08-20.18,1.06,2.29-.41,3.61-.99,5.04-5.52,13.73-13.13,26.54-17.87,40.64-2.51,7.49-6.88,14.58-7.54,22.43-1.45,17.19,3.51,33.15,12.2,47.86,7.86,13.27,19.28,23.09,32.31,31.1,12.18,7.48,23.8,15.71,34.23,25.49,7.33,6.86,14.58,13.88,18.36,24.01,3.65-4.23,3.75-8.87,4.38-13.14,1.7-11.5,.36-22.36-9.34-30.36-6.13-5.05-12.68-9.6-18.87-14.59-9.8-7.9-20.59-14.67-28.9-24.29-5.6-6.49-9.57-13.89-10.22-22.75,4.57,8.57,10.43,16.05,17.43,22.71,14.28,13.58,30.9,24.01,47.19,34.81,29.69,19.69,55.77,42.57,70.91,76.56,.92-1.01,17.09-36.07,18.25-55.28,1.22-20.39-5.58-36.79-21.77-49.38-7.99-6.22-15.68-12.81-23.51-19.23-5.97-4.9-11.95-9.79-17.93-14.68-.34,.23-.67,.45-1.01,.68,3.17,8.03,6.34,16.06,9.91,25.09-34.27-30.02-38.92-79.25-7.15-113.25,.57,.94,.18,1.82-.06,2.78-3.41,13.72-5.55,27.49-4,41.77,1.41,12.96,12.88,17.57,24.25,12.01,4.22-2.06,7.53-5.4,11.15-8.29,6.01-4.8,12.2-9.31,20.14-12.89-4.62,6.88-8.77,12.82-12.67,18.92-10,15.61-9.78,31.6-1.59,47.87,1.29,2.56,2.42,3.44,5.7,2.81,25.65-4.95,43.88,3.82,53.39,25.24,2.55,5.73,3.06,5.83,7.45,1.32,.69-.72,1.29-1.53,1.95-2.27,6.11-6.84,9.83-14.96,12.78-23.65,.91,3.43,.83,6.77,.24,10.12-.22,1.28-1.18,2.97,0,3.73,1.45,.93,2.7-.59,3.85-1.54,11.36-9.41,12.1-26.3,1.6-36.83ZM173.19,34.37h.01c7.15,6.23,14.3,12.46,21.53,18.76-6.73,2.05-8.26,1.51-12.26-3.93-3.4-4.65-6.88-9.24-10.32-13.86,.35-.32,.69-.65,1.04-.97Zm-61.69,35.84c-12.63,12.85-24.22,26.69-30.83,43.59-9.1,23.25-5.22,45.74,6.45,67.24,.59,1.09,1.26,2.69,2.88,2.09,1.39-.51,.71-2.05,.73-3.14,.13-8.91,1.28-17.65,4.54-26.13,0,0,0,0,0-.01h0s0,0,0,.01c1.42,22.26,6.98,43.25,18.05,62.92-6.56-1.38-17.86-12.26-23.27-18.86-17.4-21.26-23.99-45.98-23.19-73.04,.02-.83,.1-1.66,.11-2.49,0-.79,.31-1.81-.74-2.11-1.32-.37-1.63,.87-2.01,1.69-2.67,5.78-4.08,12-6.35,17.95,.01-10.48,1.89-20.54,7-29.77,1.45-2.63,1.53-4.33-.28-6.93-8.76-12.63-10.44-26.88-8.42-41.71,.69-5.07,4.94-6.38,9.26-6.52,8.15-.25,16.31-.28,24.47-.13,11.84,.21,23.59-.57,35.26-2.64,1.54-.27,3.14-.22,5.47-.36-6.77,6.47-13.13,12.24-19.13,18.35Zm33.58-22.24c-4.06-3.01-8-6.16-11.99-9.26,.14-.24,.29-.47,.43-.71h0c1.8,.68,3.63,1.25,5.38,2.02,9.44,4.16,19.27,6.62,29.63,6.71,2.51,.02,4.44,.9,5.54,4.07-8.34,0-16.37,.04-24.41-.03-1.97-.02-3.15-1.74-4.58-2.8Zm35.8,43.81c-7.44-1.47-14.9-2.88-22.51-2.8-4.14,.05-4.09-1.46-2.31-4.33,4.18-6.72,10.41-9.92,18.09-10.4,3.97-.25,7.99,.2,11.95-.12,3.5-.28,4.23,1.18,4.03,4.27-.1,1.47-1.1,3.64,.81,4.42,1.53,.63,1.95-2.06,4.72-2.22h0c-6.45,9.1,2.16,10.97,7.64,15.44-8.2-1.55-15.32-2.86-22.42-4.26Z"/>
  <path d="M259.39,114.93c3.06,5.49,2.95,10.99,1.79,16.81-1.48,7.42-4.67,13.94-8.77,20.16-1.73,2.62-3.76,3.07-6.16,1.06-2.32-1.94-6.42-2.98-4.33-7.44,2.18-4.65,4.3-9.29,4.04-14.59-.05-1.1,.26-1.8,1.4-2.26,6.21-2.49,10.29-6.9,12.03-13.74Z"/>
  <path d="M96.16,73.12c3.07-3.69,6.33-7.23,9.5-10.85,.62-.7,1.7-1.3,1.12-2.48-.56-1.15-1.74-.75-2.66-.75-6.97-.04-13.95-.02-20.93-.02h-16.64c.62,1.18,.73,1.77,1.05,1.94,8.33,4.3,16.67,8.59,25.05,12.79,1.13,.57,2.38,.74,3.51-.63Z"/>
  <path d="M74.51,79.68c-1.69,1.04-2.1,1.97-.37,2.63,4.68,1.79,3.24,5.29,2.59,8.46-.43,2.07-1.11,4.04-.04,7.3h.01c5.04-6.97,9.5-13.12,14.69-20.28-6.44,.78-11.78-1.23-16.88,1.89Z"/>
</svg>